<svg version="1.2" xmlns="http://www.w3.org/2000/svg" viewBox="0 0 804 804" width="500" height="500">
	<title>jkh_logo-svg</title>
	<style>
		.s0 { fill: #000000 } 
	</style>
	<path id="Layer copy" fill-rule="evenodd" class="s0" d="m0.2 97.2c0-34.8 28.2-63 63-63h677.6c34.8 0 63 28.2 63 63v213c-3.6-7.7-6.1-11.7-7.9-14-1.9-2.4-5.8-5.8-8.5-7.6-2.8-1.8-7.3-4-10-4.9-3.1-1.1-7.2-1.5-22.2-1.6v-10h-706.4v10.2c-16.2 0.3-19.8 0.7-22.4 1.6-2.8 0.9-6.6 2.6-8.5 3.8-1.9 1.2-5.4 4.2-7.8 6.7-2.3 2.6-5.3 6.8-6.6 9.4-1.2 2.4-2.6 6.3-3.3 9.2zm803.6 609.6c0 34.8-28.2 63-63 63h-677.6c-34.8 0-63-28.2-63-63v-28.5q0.1 0.1 0.3 0.2c2.7 2.8 7.1 6.9 9.9 9.1 2.7 2.2 6.8 5.1 9 6.5 2.2 1.4 6.7 4 10 5.6 3.3 1.7 9.8 4.4 14.5 6.1 1.4 0.5 3.1 1 4.9 1.6 0.4 7.7 6.7 13.8 14.5 13.8h677.4c8 0 14.5-6.5 14.5-14.5l20.2-0.2c10.5-5 15.5-8.5 18-11 2.5-2.5 6-7.5 7.7-11.3l2.7-5.4zm-48.6-609.5c0-8.1-6.5-14.6-14.5-14.6h-677.4c-8 0-14.5 6.5-14.5 14.6v126.2h706.4zm-66.7 89c-18.8 0-34-15.2-34-33.9 0-18.8 15.2-34 34-34 18.8 0 34 15.2 34 34 0 18.7-15.2 33.9-34 33.9zm-97.1 0c-18.8 0-34-15.2-34-33.9 0-18.8 15.2-34 34-34 18.8 0 34 15.2 34 34 0 18.7-15.2 33.9-34 33.9zm-97.1 0c-18.8 0-34-15.2-34-33.9 0-18.8 15.2-34 34-34 18.8 0 34 15.2 34 34 0 18.7-15.2 33.9-34 33.9zm-490.6 211.2c1.4 2.8 4.4 7 6.7 9.5 2.7 2.8 7 5.8 11.6 8l7.4 3.5 19.4 0.2v106.7c-5.3 1.1-19.1 4.1-32.9 7.2q-9 2.1-15.7 3.7v-148.2c0.7 2.9 2.2 6.9 3.5 9.4zm485.8-5.8l0.3 42.4c0.1 23.3 0.1 61.8-0.3 128.8l-9.3-18.2c-5-10-16.1-31.7-40-78.2z"/>
	<path id="text-0" class="s0" d="m38.6 321h148.7v251.6q0 47.5-24.1 73.5-24.1 25.9-70.6 25.9-44.1 0-65.9-24.7-21.9-24.7-28.7-70.2l58.6-13.4q3.1 26.2 11.2 36.1 8.2 9.9 23.9 9.9 14.5 0 22.8-8.9 8.3-8.9 8.3-32.1v-190.8h-84.2zm382.1 345l-73-152.7-36.5 54.3v98.4h-64.4v-345h64.4v111.7l-2.7 54.9h7.2l31.1-54.9 68.5-111.7h73l-95.1 143.8 103.2 201.2zm279 0v-143.8h-104.7v143.8h-64.3v-345h64.3v139.9h104.7v-139.9h64.3v345z"/>
</svg>