<svg version="1.2" xmlns="http://www.w3.org/2000/svg" viewBox="0 0 512 512" width="512" height="512">
	<title>jkh_logo</title>
	<style>
		.s0 { fill: none;stroke: #ff75ca;stroke-miterlimit:100;stroke-width: 24 } 
		.s1 { fill: #ff75ca } 
		.s2 { fill: #550034 } 
	</style>
	<g id="Folder 1">
		<path id="Outline" fill-rule="evenodd" class="s0" d="m13.2 72.4c0-21.1 17.1-38.2 38.2-38.2h409.2c21.1 0 38.2 17.1 38.2 38.2v43h-485.6v323.9c0 21.1 17.1 38.2 38.2 38.2h409.2c21.1 0 38.2-17.1 38.2-38.2l-0.6-324.8-485-0.5z"/>
		<path id="Title Bar" class="s1" d="m498.8 115.4v-43c0-21.1-17.1-38.2-38.2-38.2h-409.2c-21.1 0-38.2 17.1-38.2 38.2v43"/>
		<path id="Title Bar copy" fill-rule="evenodd" class="s2" d="m458.7 52.5c-11.3 0-20.4 9.1-20.4 20.4 0 11.2 9.1 20.3 20.4 20.3 11.2 0 20.3-9.1 20.3-20.3 0-11.3-9.1-20.4-20.3-20.4zm-58.2 0c-11.2 0-20.3 9.1-20.3 20.4 0 11.2 9.1 20.3 20.3 20.3 11.2 0 20.4-9.1 20.4-20.3 0-11.3-9.2-20.4-20.4-20.4zm-58.1 0c-11.2 0-20.4 9.1-20.4 20.4 0 11.2 9.2 20.3 20.4 20.3 11.2 0 20.3-9.1 20.3-20.3 0-11.3-9.1-20.4-20.3-20.4z"/>
		<path id="Terminal Body" class="s2" d="m13.2 114v325.3c0 21.1 17.1 38.2 38.2 38.2h409.2c21.1 0 38.2-17.1 38.2-38.2l-0.6-324.8"/>
		<path id="JKH" class="s1" d="m39.2 188.1h96.5v150.7q0 28.4-14 44-14.1 15.5-41.2 15.5-25.8 0-38.5-14.8-12.8-14.8-16.8-42l34.2-8q1.9 15.7 6.6 21.6 4.7 5.9 13.9 5.9 8.5 0 13.4-5.3 4.8-5.3 4.8-19.2v-114.3h-58.9zm232.8 206.6l-42.6-91.5-21.3 32.6v58.9h-37.6v-206.6h37.6v66.9l-1.6 32.8h4.2l18.2-32.8 40-66.9h42.6l-55.5 86.1 60.2 120.5zm162.9 0v-86.1h-61.1v86.1h-37.6v-206.6h37.6v83.8h61.1v-83.8h37.5v206.6z"/>
	</g>
</svg>